<?xml version="1.0" encoding="UTF-8" standalone="no"?>
<!-- Created with Inkscape (http://www.inkscape.org/) -->

<svg
   xmlns:dc="http://purl.org/dc/elements/1.1/"
   xmlns:cc="http://creativecommons.org/ns#"
   xmlns:rdf="http://www.w3.org/1999/02/22-rdf-syntax-ns#"
   xmlns:svg="http://www.w3.org/2000/svg"
   xmlns="http://www.w3.org/2000/svg"
   xmlns:xlink="http://www.w3.org/1999/xlink"
   xmlns:sodipodi="http://sodipodi.sourceforge.net/DTD/sodipodi-0.dtd"
   xmlns:inkscape="http://www.inkscape.org/namespaces/inkscape"
   width="76.85199"
   height="77.151932"
   id="svg3760"
   version="1.1"
   inkscape:version="0.48.1 "
   sodipodi:docname="LIGHT.svg">
  <defs
     id="defs3762">
    <linearGradient
       id="linearGradient4306">
      <stop
         id="stop4308"
         offset="0"
         style="stop-color:#9f863f;stop-opacity:1" />
      <stop
         style="stop-color:#332815;stop-opacity:1"
         offset="1"
         id="stop4310" />
      <stop
         id="stop4312"
         offset="1"
         style="stop-color:#e9e560;stop-opacity:1" />
    </linearGradient>
    <linearGradient
       id="linearGradient4296">
      <stop
         id="stop4298"
         offset="0"
         style="stop-color:#f0bf7a;stop-opacity:0.91071427;" />
      <stop
         style="stop-color:#f0bf7a;stop-opacity:0.45490196;"
         offset="0.64173013"
         id="stop4300" />
      <stop
         id="stop4302"
         offset="1"
         style="stop-color:#f0bf7a;stop-opacity:0;" />
    </linearGradient>
    <linearGradient
       id="linearGradient4230">
      <stop
         style="stop-color:#f0bf7a;stop-opacity:0.91071427;"
         offset="0"
         id="stop4232" />
      <stop
         id="stop4292"
         offset="0.5"
         style="stop-color:#f0bf7a;stop-opacity:0.45490196;" />
      <stop
         style="stop-color:#f0bf7a;stop-opacity:0;"
         offset="1"
         id="stop4234" />
    </linearGradient>
    <linearGradient
       id="linearGradient3111">
      <stop
         style="stop-color:#f3c87d;stop-opacity:0.7589286;"
         offset="0"
         id="stop3113" />
      <stop
         id="stop3119"
         offset="0.91352373"
         style="stop-color:#d69c45;stop-opacity:1" />
      <stop
         style="stop-color:#e5ff6a;stop-opacity:1"
         offset="1"
         id="stop3115" />
    </linearGradient>
    <linearGradient
       id="linearGradient3101">
      <stop
         style="stop-color:#a5864d;stop-opacity:1"
         offset="0"
         id="stop3103" />
      <stop
         id="stop4238"
         offset="0.78602821"
         style="stop-color:#332815;stop-opacity:1" />
      <stop
         style="stop-color:#1a1911;stop-opacity:1"
         offset="1"
         id="stop3105" />
    </linearGradient>
    <radialGradient
       inkscape:collect="always"
       xlink:href="#linearGradient4230"
       id="radialGradient4236"
       cx="306.59958"
       cy="555.36737"
       fx="306.59958"
       fy="555.36737"
       r="6.0054863"
       gradientTransform="matrix(0.60886416,0.50796393,-0.90996045,1.0907119,625.30825,-205.98784)"
       gradientUnits="userSpaceOnUse" />
    <radialGradient
       inkscape:collect="always"
       xlink:href="#linearGradient4306"
       id="radialGradient4304"
       cx="327.57648"
       cy="574.45367"
       fx="327.57648"
       fy="574.45367"
       r="39.671756"
       gradientTransform="matrix(-1.8589783e-6,1.0770613,-1.1551438,-2.9470962e-6,991.28513,221.58125)"
       gradientUnits="userSpaceOnUse" />
    <linearGradient
       y2="22.401928"
       x2="106.24998"
       y1="22.901928"
       x1="143.49998"
       gradientTransform="matrix(1.2113408,0,0,1.2113407,182.53634,525.19736)"
       gradientUnits="userSpaceOnUse"
       id="linearGradient6058"
       xlink:href="#linearGradient5507-3"
       inkscape:collect="always" />
    <linearGradient
       id="linearGradient5507-3">
      <stop
         style="stop-color:#ff0000;stop-opacity:1;"
         offset="0"
         id="stop5509-1" />
      <stop
         style="stop-color:#ff6600;stop-opacity:1"
         offset="1"
         id="stop5511-9" />
    </linearGradient>
    <linearGradient
       y2="22.401928"
       x2="106.24998"
       y1="22.901928"
       x1="143.49998"
       gradientTransform="matrix(1.2113408,0,0,1.2113407,182.53634,525.19736)"
       gradientUnits="userSpaceOnUse"
       id="linearGradient7449"
       xlink:href="#linearGradient5507-3"
       inkscape:collect="always" />
    <linearGradient
       id="linearGradient7451">
      <stop
         style="stop-color:#ff0000;stop-opacity:1;"
         offset="0"
         id="stop7453" />
      <stop
         style="stop-color:#ff6600;stop-opacity:1"
         offset="1"
         id="stop7455" />
    </linearGradient>
    <linearGradient
       y2="22.401928"
       x2="106.24998"
       y1="22.901928"
       x1="143.49998"
       gradientTransform="matrix(0.71708557,0,0,0.71708544,242.57691,538.31081)"
       gradientUnits="userSpaceOnUse"
       id="linearGradient7459"
       xlink:href="#linearGradient5507-3"
       inkscape:collect="always" />
    <radialGradient
       inkscape:collect="always"
       xlink:href="#linearGradient3111-5"
       id="radialGradient4358-4"
       cx="327.81348"
       cy="574.35522"
       fx="327.81348"
       fy="574.35522"
       r="39.671757"
       gradientTransform="matrix(1,0,0,1.0232282,0,-13.341263)"
       gradientUnits="userSpaceOnUse" />
    <linearGradient
       id="linearGradient3111-5">
      <stop
         style="stop-color:#f3c87d;stop-opacity:0.7589286;"
         offset="0"
         id="stop3113-4" />
      <stop
         id="stop3119-9"
         offset="0.91352373"
         style="stop-color:#d69c45;stop-opacity:1" />
      <stop
         style="stop-color:#e5ff6a;stop-opacity:1"
         offset="1"
         id="stop3115-5" />
    </linearGradient>
    <radialGradient
       inkscape:collect="always"
       xlink:href="#linearGradient3101-4"
       id="radialGradient3107-6"
       cx="316.5849"
       cy="568.73383"
       fx="316.5849"
       fy="568.73383"
       r="35.220825"
       gradientTransform="matrix(0.74739457,0.822666,-0.75830964,0.68893224,512.80084,-84.984613)"
       gradientUnits="userSpaceOnUse" />
    <linearGradient
       id="linearGradient3101-4">
      <stop
         style="stop-color:#a5864d;stop-opacity:1"
         offset="0"
         id="stop3103-8" />
      <stop
         id="stop4238-2"
         offset="0.78602821"
         style="stop-color:#332815;stop-opacity:1" />
      <stop
         style="stop-color:#1a1911;stop-opacity:1"
         offset="1"
         id="stop3105-1" />
    </linearGradient>
    <radialGradient
       inkscape:collect="always"
       xlink:href="#linearGradient4296-8"
       id="radialGradient4294-6"
       gradientUnits="userSpaceOnUse"
       gradientTransform="matrix(0.60886416,0.50796393,-0.90996045,1.0907119,625.30825,-205.98784)"
       cx="306.59958"
       cy="555.36737"
       fx="306.59958"
       fy="555.36737"
       r="6.0054865" />
    <linearGradient
       id="linearGradient4296-8">
      <stop
         id="stop4298-3"
         offset="0"
         style="stop-color:#f0bf7a;stop-opacity:0.91071427;" />
      <stop
         style="stop-color:#f0bf7a;stop-opacity:0.45490196;"
         offset="0.64173013"
         id="stop4300-1" />
      <stop
         id="stop4302-4"
         offset="1"
         style="stop-color:#f0bf7a;stop-opacity:0;" />
    </linearGradient>
  </defs>
  <sodipodi:namedview
     id="base"
     pagecolor="#ffffff"
     bordercolor="#666666"
     borderopacity="1.0"
     inkscape:pageopacity="0.0"
     inkscape:pageshadow="2"
     inkscape:zoom="6.4192037"
     inkscape:cx="27.90341"
     inkscape:cy="62.882741"
     inkscape:document-units="px"
     inkscape:current-layer="g4793"
     showgrid="false"
     fit-margin-top="0"
     fit-margin-left="0"
     fit-margin-right="0"
     fit-margin-bottom="0"
     inkscape:window-width="1280"
     inkscape:window-height="780"
     inkscape:window-x="-8"
     inkscape:window-y="-8"
     inkscape:window-maximized="1"
     inkscape:snap-global="true"
     showguides="true"
     inkscape:guide-bbox="true" />
  <metadata
     id="metadata3765">
    <rdf:RDF>
      <cc:Work
         rdf:about="">
        <dc:format>image/svg+xml</dc:format>
        <dc:type
           rdf:resource="http://purl.org/dc/dcmitype/StillImage" />
        <dc:title />
      </cc:Work>
    </rdf:RDF>
  </metadata>
  <g
     inkscape:label="Layer 1"
     inkscape:groupmode="layer"
     id="layer1"
     transform="translate(-288.98475,-535.52559)">
    <g
       id="g4793"
       transform="matrix(0.96766596,0,0,0.94944363,10.181651,28.771222)">
      <text
         xml:space="preserve"
         style="font-size:28.68341637px;font-style:normal;font-weight:normal;line-height:125%;letter-spacing:0px;word-spacing:0px;fill:url(#linearGradient7459);fill-opacity:1;stroke:none;font-family:StoneSerITCStd Medium;-inkscape-font-specification:StoneSerITCStd Medium"
         x="310.52072"
         y="555.62982"
         id="text5503"
         sodipodi:linespacing="125%"
         transform="scale(0.99053965,1.0095507)"><tspan
           sodipodi:role="line"
           id="tspan5505"
           x="310.52072"
           y="555.62982"
           style="font-size:4.30251265px;fill:url(#linearGradient7459);fill-opacity:1">Created by Falzar FZ</tspan></text>
      <g
         transform="translate(0.00547206,0.0258127)"
         id="g3021">
        <path
           style="fill:url(#radialGradient4358-4);fill-opacity:1;stroke:none"
           d="m 325.12487,533.76805 c -12.04619,0.12786 -23.83129,6.47825 -30.10708,16.8382 -9.98334,15.47574 -9.2208,37.5796 3.10803,51.55872 7.91058,8.9416 20.14109,13.52621 31.99522,12.68526 12.96871,-0.25474 25.57911,-7.74217 31.66968,-19.25774 5.39871,-9.43832 6.92244,-20.84042 4.7256,-31.45827 -2.298,-13.99137 -13.54381,-26.2257 -27.38604,-29.44165 -4.60618,-0.8471 -9.33291,-0.96193 -14.00541,-0.92452 z"
           id="path3048"
           inkscape:connector-curvature="0" />
        <path
           style="fill:url(#radialGradient3107-6);fill-opacity:1;stroke:none"
           d="m 325.42652,538.32169 c -10.69468,0.11351 -21.15757,5.75143 -26.72925,14.94905 -8.86327,13.73946 -8.18628,33.3634 2.75933,45.77415 7.02306,7.9384 17.88138,12.00865 28.40555,11.26205 11.5137,-0.22616 22.70929,-6.87355 28.11653,-17.09714 4.79301,-8.3794 6.14578,-18.50225 4.19542,-27.92884 -2.04018,-12.42163 -12.02428,-23.28334 -24.3135,-26.13848 -4.08939,-0.75206 -8.28581,-0.85401 -12.43408,-0.82079 z"
           id="path3048-4"
           inkscape:connector-curvature="0" />
        <path
           style="fill:url(#radialGradient4294-6);fill-opacity:1;stroke:none"
           d="m 311.71455,548.43287 c -6.29773,-1.46827 -14.76365,7.17281 -10.62999,13.63988 6.56058,3.42979 14.32286,-7.35284 10.62999,-13.63988 z"
           id="path3109"
           inkscape:connector-curvature="0"
           sodipodi:nodetypes="ccc" />
        <g
           id="g4771"
           transform="translate(-85.682227,0.42272594)"
           style="fill:#ffffff;fill-opacity:1">
          <g
             style="fill:#ffffff;fill-opacity:1"
             transform="translate(-84.567676,0)"
             id="g4661">
            <path
               style="fill:#ffffff;fill-opacity:1;stroke:none"
               d="m 495.41679,555.45688 c -0.11272,2.8363 0.001,12.46248 0.006,15.75894 -4.04425,-0.1517 -19.22827,0.21676 -20.12967,0.54761 -1.91426,0.70262 -1.78727,3.19112 -0.26081,3.85418 2.08778,0.90687 11.92333,0.29591 14.52689,0.29335 -0.004,4.02407 -2.12215,7.06125 -4.37736,10.43967 -2.27149,3.18701 -6.06524,6.17457 -8.79468,7.81109 -2.21015,1.32517 -4.03255,2.3092 -6.47335,2.18074 -1.95074,-0.10267 -1.26123,1.9273 -1.10708,3.01297 0.29439,2.07328 4.65537,2.28937 5.83018,1.79537 3.8795,-2.42873 6.53772,-3.81595 9.38178,-6.73421 2.15237,-2.20853 4.59339,-6.60577 5.50582,-7.58146 1.28736,-1.37662 3.89491,-8.55697 4.34106,-10.02249 0.49481,-1.62535 0.97865,-1.48229 2.26805,-1.35073 1.27993,0 2.55985,0 3.83978,0 0.626,5.85665 -0.66704,23.48283 0.9179,23.98911 6.1861,1.07405 19.20837,3.28933 25.14775,1.96442 1.52957,-1.42268 2.67635,-4.66847 1.82575,-7.39139 -7.90596,2.06547 -8.94335,1.17023 -23.65929,1.42155 -0.59975,-5.11984 -0.0152,-13.82908 -2e-5,-19.98367 5.34859,0 10.17536,-0.13578 15.65238,-0.0787 1.55757,0.0162 2.75184,-3.86998 0.48769,-3.89196 -8.39851,-0.16659 -13.27633,0.10886 -20.17607,-0.26156 -0.0957,-5.28627 0.10825,-10.51327 -0.0895,-15.79193 -0.0251,-2.27077 -4.44215,-1.95524 -4.66348,0.0191 z"
               id="path4466"
               inkscape:connector-curvature="0"
               sodipodi:nodetypes="ccssccssscssscccccccscccc" />
            <path
               style="fill:#ffffff;fill-opacity:1;stroke:none"
               d="m 507.27507,559.67595 c 2.33184,1.77217 3.29149,5.74031 5.38996,5.87832 2.81049,0.18485 5.03733,-1.48802 5.84656,-3.18702 0.44606,-0.93652 -8.0955,-3.42564 -10.05858,-4.09577 -1.0472,-0.35748 -1.74088,0.97665 -1.17794,1.40447 z"
               id="path4468"
               inkscape:connector-curvature="0"
               sodipodi:nodetypes="sssss" />
            <path
               style="fill:#ffffff;fill-opacity:1;stroke:none"
               d="m 486.81056,558.61792 c -3.06262,1.59121 -5.6519,1.51564 -9.20874,1.28084 -1.66188,3.45951 1.84276,5.90505 2.08582,6.4388 0.4218,0.92623 2.26623,0.87082 2.99268,0.28717 2.68397,-2.15638 5.97399,-4.21295 5.89216,-7.64775 -0.0208,-0.87319 -0.86454,-0.8253 -1.76192,-0.35906 z"
               id="path4470"
               inkscape:connector-curvature="0"
               sodipodi:nodetypes="scssss" />
          </g>
          <path
             sodipodi:nodetypes="ccccccccccccccccccccc"
             inkscape:connector-curvature="0"
             id="path4692"
             d="m 388.32416,541.47719 c -0.10053,0.22296 -0.008,0.69421 0.29401,0.66098 0.34411,0.0707 0.88066,-0.11069 1.04897,0.25543 0.11092,1.44354 0.0413,2.90337 0.0709,4.35381 -0.0226,1.4786 0.0609,2.96545 -0.0563,4.43696 -0.21892,0.45406 -0.67244,0.34586 -1.09018,0.40513 -0.18455,0.12643 -0.17795,0.70693 0.18149,0.58558 2.7392,-0.009 5.26519,0.0202 7.9987,-0.023 0.2116,-0.44522 0.20756,-1.10411 0.33408,-1.58932 0.0378,-0.41748 0.23159,-0.98488 0.17588,-1.39965 -0.20211,-0.25715 -0.58885,0.0688 -0.60737,0.36072 -0.30104,0.72705 -0.76427,1.6387 -1.60977,1.82556 -0.89653,0.20901 -1.0947,0.18991 -2.00202,0.0455 -0.46669,-0.0487 -0.74871,-0.49183 -0.69509,-0.92525 -0.0344,-2.62197 -0.0312,-5.25835 0.0273,-7.87969 -0.0458,-0.44211 0.49897,-0.38159 0.83427,-0.42249 0.209,-0.0208 0.60301,-0.15189 0.56134,-0.45853 0.0753,-0.45494 -0.53507,-0.20674 -0.80216,-0.26891 -1.29323,0.0162 -3.35264,-0.0325 -4.63644,0.0244 l -0.0275,0.0127 z"
             style="fill:#ffffff;fill-opacity:1;stroke:none" />
          <path
             sodipodi:nodetypes="cccccccccccccccccc"
             inkscape:connector-curvature="0"
             id="path4694"
             d="m 397.87299,541.47719 c -0.0742,0.19273 10e-4,0.65799 0.30793,0.5935 0.34536,0.0764 1.12547,0.0248 1.39216,0.27597 0.1832,0.33578 0.0146,0.6782 0.0682,1.04293 0.0251,2.60565 0.0608,5.22278 -0.0476,7.81955 -0.22439,0.4081 -1.17502,0.32022 -1.57193,0.39013 -0.24595,0.0464 -0.28386,0.71104 0.0981,0.57581 1.45429,0 3.65606,0 5.11036,0 0.19238,-0.11635 0.18842,-0.69274 -0.16646,-0.59667 -0.36009,-0.0484 -0.73677,0.0443 -0.93205,-0.32108 -0.11533,-1.62051 -0.0519,-3.25416 -0.079,-4.88101 0.0181,-1.30452 -0.008,-2.54195 0.0966,-3.83816 0.13661,-0.36792 0.49257,-0.34058 0.80747,-0.43177 0.22583,0.0136 0.44071,-0.19927 0.37874,-0.45229 0.002,-0.40601 -0.43734,-0.13662 -0.70287,-0.21406 -1.27389,0.0162 -3.46769,-0.0325 -4.73214,0.0244 l -0.0275,0.0127 z"
             style="fill:#ffffff;fill-opacity:1;stroke:none" />
          <path
             sodipodi:nodetypes="cccccccccccccsccccccccssccc"
             inkscape:connector-curvature="0"
             id="path4696"
             d="m 410.404,541.28613 c -1.89028,0.0615 -4.18984,1.00079 -5.27949,2.84189 -0.91864,1.56002 -0.85556,3.79399 -0.13547,5.47156 0.76131,1.69461 2.56904,2.37483 4.15818,2.63919 1.59933,0.24226 3.23029,-0.0505 4.76305,-0.58381 0.15101,-0.27176 0.0306,-0.67785 0.0756,-1.00124 0.0421,-0.92058 -0.0483,-1.71803 0.10304,-2.61494 0.15746,-0.29981 0.52911,-0.23961 0.78919,-0.32729 0.16923,0.009 0.38149,-0.20186 0.34954,-0.45103 0.0673,-0.45864 -0.45679,-0.21084 -0.68666,-0.27245 -1.18982,0.0164 -2.39268,-0.0327 -3.57444,0.0244 -0.16104,0.28021 0.006,0.79766 0.33234,0.69387 0.3499,0.0823 0.59868,-0.006 0.85857,0.32367 0.0244,0.17997 0.0431,0.35362 0.0567,0.52376 0.0487,0.60972 0.0322,1.17447 -0.0195,1.82395 -0.0378,0.50288 -0.0851,1.0247 -0.54949,1.13578 -1.0089,0.29896 -2.10982,0.12259 -3.0542,-0.35028 -1.38784,-0.78517 -1.35657,-2.5763 -1.40429,-4.28792 -0.0352,-1.37179 0.23011,-2.87191 1.16684,-3.82133 0.82934,-0.86995 1.31495,-0.97201 2.40509,-0.92909 0.95981,0.0644 1.04178,0.0325 1.5632,1.03271 0.17189,0.34146 0.24327,0.73706 0.37489,1.0878 0.29428,0.0987 1.21976,0.2106 1.15441,-0.21175 -0.0911,-0.58859 -0.12953,-1.18002 -0.34103,-1.73311 -0.201,-0.52564 -0.94669,-0.64367 -1.39052,-0.81057 -0.74025,-0.20196 -0.95513,-0.22591 -1.71562,-0.20377 z"
             style="fill:#ffffff;fill-opacity:1;stroke:none" />
          <path
             sodipodi:nodetypes="ccccccccccccccccccccccccccccccccccccc"
             inkscape:connector-curvature="0"
             id="path4698"
             d="m 416.37524,541.47719 c -0.0703,0.19273 -0.036,0.66276 0.25426,0.59827 0.32691,0.0764 0.7302,0.0248 0.98266,0.27597 0.1734,0.33578 0.051,0.67343 0.10178,1.03816 0.0238,2.60565 0.0575,5.1441 -0.0451,7.74087 -0.21243,0.4081 -0.77713,0.32022 -1.15284,0.39013 -0.23282,0.0464 -0.26872,0.78972 0.0929,0.65449 1.41197,-0.0164 3.33905,0.0604 4.74211,0.003 0.12312,-0.24673 0.0179,-0.7635 -0.3492,-0.65045 -0.32326,-0.0548 -0.86106,-3.9e-4 -0.96139,-0.41754 -0.11057,-1.37002 -0.0412,-2.68216 -0.0785,-4.06279 -0.1263,-0.48345 0.49021,-0.20821 0.7674,-0.27958 1.60455,0 1.7069,-0.0278 3.31147,-0.0278 -0.0346,1.47296 0.0288,2.8781 -0.079,4.3406 -0.10245,0.4277 -0.64643,0.36186 -0.97529,0.41301 -0.37636,-0.10094 -0.38064,0.4091 -0.28911,0.65637 1.42336,0.0579 3.86731,0.008 5.29803,0.0247 0.24762,0.003 0.24611,-0.73475 -0.0479,-0.67003 -0.35379,-0.053 -0.6953,0.0244 -0.92766,-0.31799 -0.17321,-0.88887 -0.0682,-1.74323 -0.10433,-2.65107 0.0195,-1.97988 -0.0473,-3.88232 0.0511,-5.85727 -0.0175,-0.23807 0.11438,-0.46827 0.35733,-0.47767 0.29732,-0.10491 0.47535,-0.0697 0.76078,-0.18222 0.12224,-0.1825 0.11274,-0.68334 -0.19928,-0.5788 -1.38911,0.0163 -3.79397,-0.0325 -5.17413,0.0244 -0.14158,0.19236 -0.0385,0.6601 0.25233,0.6181 0.30995,0.0707 0.72527,0.0266 0.94658,0.29545 0.20104,0.76513 0.0824,1.49307 0.11133,2.27832 -0.004,0.42813 -0.008,0.85626 -0.0116,1.28439 -1.84048,0 -2.17876,0.0278 -4.01925,0.0278 0.0221,-1.16481 -0.10029,-2.25713 0.0498,-3.41234 0.10323,-0.42532 0.65038,-0.36638 0.9775,-0.43697 0.23879,0.028 0.44917,-0.23789 0.37622,-0.49743 -0.097,-0.32436 -0.60509,-0.0765 -0.86927,-0.15391 -1.20582,0.0164 -2.92678,-0.0606 -4.12366,-0.003 l -0.026,0.0127 z"
             style="fill:#ffffff;fill-opacity:1;stroke:none" />
          <path
             sodipodi:nodetypes="ccccccccccccccccccccccc"
             inkscape:connector-curvature="0"
             id="path4700"
             d="m 429.31154,541.51008 c -0.18121,0.78106 -0.3803,1.57908 -0.49816,2.36559 0.24128,0.18648 0.6493,0.0254 0.74657,-0.25326 0.35857,-0.63443 0.82781,-1.36196 1.67005,-1.46307 0.7266,-0.12614 0.99222,-0.0717 1.72727,-0.085 -0.0312,2.97793 0.02,5.96217 -0.0745,8.93584 0.024,0.45102 -0.10161,0.53734 -0.46762,0.56908 -0.21743,0.0153 -0.62141,0.006 -0.57939,0.30664 -0.0758,0.45119 0.56489,0.20263 0.84458,0.26537 1.36163,-0.0162 2.73914,0.0325 4.09083,-0.0244 0.14307,-0.17215 0.0593,-0.54044 -0.24245,-0.52051 -0.34722,-0.0804 -0.92854,-0.0322 -1.19189,-0.28129 -0.20118,-0.80519 -0.0871,-1.65421 -0.13375,-2.47855 -0.0111,-2.26034 -0.0173,-4.5207 -0.0266,-6.78104 0.8158,0.0609 1.42411,-0.063 2.21743,0.1486 0.78908,0.24922 1.15247,1.00792 1.5707,1.61521 0.16571,0.21838 0.7199,0.12248 0.53388,-0.20435 -0.14576,-0.69228 -0.0583,-1.39889 -0.23396,-2.08136 -0.59414,-0.10367 -1.07654,-0.027 -1.68657,-0.0605 -2.72734,-0.0182 -5.45476,-0.007 -8.18215,-0.0102 l -0.0552,0.0244 -0.029,0.0127 z"
             style="fill:#ffffff;fill-opacity:1;stroke:none" />
        </g>
      </g>
    </g>
  </g>
</svg>
