<?xml version="1.0" encoding="UTF-8" standalone="no"?>
<!-- Created with Inkscape (http://www.inkscape.org/) -->

<svg
   xmlns:dc="http://purl.org/dc/elements/1.1/"
   xmlns:cc="http://creativecommons.org/ns#"
   xmlns:rdf="http://www.w3.org/1999/02/22-rdf-syntax-ns#"
   xmlns:svg="http://www.w3.org/2000/svg"
   xmlns="http://www.w3.org/2000/svg"
   xmlns:xlink="http://www.w3.org/1999/xlink"
   xmlns:sodipodi="http://sodipodi.sourceforge.net/DTD/sodipodi-0.dtd"
   xmlns:inkscape="http://www.inkscape.org/namespaces/inkscape"
   sodipodi:docname="WATER.svg"
   inkscape:version="0.48.1 "
   version="1.1"
   id="svg3760"
   height="77.151932"
   width="76.85199">
  <defs
     id="defs3762">
    <linearGradient
       id="linearGradient4188">
      <stop
         style="stop-color:#08a3e6;stop-opacity:1"
         offset="0"
         id="stop4190" />
      <stop
         id="stop4196"
         offset="0.75918519"
         style="stop-color:#08a3e6;stop-opacity:1" />
      <stop
         style="stop-color:#016ead;stop-opacity:1"
         offset="1"
         id="stop4192" />
    </linearGradient>
    <linearGradient
       id="linearGradient4161">
      <stop
         style="stop-color:#0aa4e5;stop-opacity:1"
         offset="0"
         id="stop4163" />
      <stop
         style="stop-color:#016dac;stop-opacity:1"
         offset="1"
         id="stop4165" />
    </linearGradient>
    <linearGradient
       inkscape:collect="always"
       id="linearGradient3711">
      <stop
         style="stop-color:#53e1ff;stop-opacity:1;"
         offset="0"
         id="stop3713" />
      <stop
         style="stop-color:#53e1ff;stop-opacity:0;"
         offset="1"
         id="stop3715" />
    </linearGradient>
    <linearGradient
       inkscape:collect="always"
       id="linearGradient3703">
      <stop
         style="stop-color:#53e1ff;stop-opacity:1;"
         offset="0"
         id="stop3705" />
      <stop
         style="stop-color:#53e1ff;stop-opacity:0;"
         offset="1"
         id="stop3707" />
    </linearGradient>
    <linearGradient
       id="linearGradient3497">
      <stop
         style="stop-color:#005e96;stop-opacity:1"
         offset="0"
         id="stop3499" />
      <stop
         id="stop3501"
         offset="0.30073237"
         style="stop-color:#006bab;stop-opacity:1" />
      <stop
         style="stop-color:#16afe5;stop-opacity:1"
         offset="1"
         id="stop3503" />
    </linearGradient>
    <linearGradient
       id="linearGradient3479">
      <stop
         id="stop3481"
         offset="0"
         style="stop-color:#005e96;stop-opacity:1" />
      <stop
         style="stop-color:#006bab;stop-opacity:1"
         offset="0.55290782"
         id="stop3483" />
      <stop
         id="stop3485"
         offset="1"
         style="stop-color:#16afe5;stop-opacity:1" />
    </linearGradient>
    <linearGradient
       id="linearGradient3469">
      <stop
         style="stop-color:#0069a4;stop-opacity:1"
         offset="0"
         id="stop3471" />
      <stop
         id="stop3473"
         offset="0.62723601"
         style="stop-color:#006bab;stop-opacity:1" />
      <stop
         style="stop-color:#16b0e5;stop-opacity:1"
         offset="1"
         id="stop3475" />
    </linearGradient>
    <linearGradient
       inkscape:collect="always"
       id="linearGradient3258">
      <stop
         style="stop-color:#26c0e4;stop-opacity:1"
         offset="0"
         id="stop3260" />
      <stop
         style="stop-color:#009be6;stop-opacity:1"
         offset="1"
         id="stop3262" />
    </linearGradient>
    <linearGradient
       id="linearGradient4306">
      <stop
         id="stop4308"
         offset="0"
         style="stop-color:#9f863f;stop-opacity:1" />
      <stop
         style="stop-color:#332815;stop-opacity:1"
         offset="1"
         id="stop4310" />
      <stop
         id="stop4312"
         offset="1"
         style="stop-color:#e9e560;stop-opacity:1" />
    </linearGradient>
    <linearGradient
       id="linearGradient4296">
      <stop
         id="stop4298"
         offset="0"
         style="stop-color:#0068af;stop-opacity:1" />
      <stop
         style="stop-color:#006bab;stop-opacity:1"
         offset="0.65370244"
         id="stop4300" />
      <stop
         id="stop4302"
         offset="1"
         style="stop-color:#16b0e5;stop-opacity:1" />
    </linearGradient>
    <linearGradient
       id="linearGradient4230">
      <stop
         style="stop-color:#f0bf7a;stop-opacity:0.91071427;"
         offset="0"
         id="stop4232" />
      <stop
         id="stop4292"
         offset="0.5"
         style="stop-color:#f0bf7a;stop-opacity:0.45490196;" />
      <stop
         style="stop-color:#f0bf7a;stop-opacity:0;"
         offset="1"
         id="stop4234" />
    </linearGradient>
    <linearGradient
       id="linearGradient3111">
      <stop
         id="stop3119"
         offset="0"
         style="stop-color:#d69c45;stop-opacity:1" />
      <stop
         style="stop-color:#e5ff6a;stop-opacity:1"
         offset="1"
         id="stop3115" />
    </linearGradient>
    <linearGradient
       id="linearGradient3101">
      <stop
         style="stop-color:#a5864d;stop-opacity:1"
         offset="0"
         id="stop3103" />
      <stop
         id="stop4238"
         offset="0.78602821"
         style="stop-color:#332815;stop-opacity:1" />
      <stop
         style="stop-color:#1a1911;stop-opacity:1"
         offset="1"
         id="stop3105" />
    </linearGradient>
    <radialGradient
       inkscape:collect="always"
       xlink:href="#linearGradient4230"
       id="radialGradient4236"
       cx="306.59958"
       cy="555.36737"
       fx="306.59958"
       fy="555.36737"
       r="6.0054863"
       gradientTransform="matrix(0.60886416,0.50796393,-0.90996045,1.0907119,625.30825,-205.98784)"
       gradientUnits="userSpaceOnUse" />
    <radialGradient
       inkscape:collect="always"
       xlink:href="#linearGradient4306"
       id="radialGradient4304"
       cx="327.57648"
       cy="574.45367"
       fx="327.57648"
       fy="574.45367"
       r="39.671756"
       gradientTransform="matrix(-1.8589783e-6,1.0770613,-1.1551438,-2.9470962e-6,991.28513,221.58125)"
       gradientUnits="userSpaceOnUse" />
    <radialGradient
       inkscape:collect="always"
       xlink:href="#linearGradient3111"
       id="radialGradient4358"
       cx="327.81348"
       cy="574.35523"
       fx="327.81348"
       fy="574.35523"
       r="39.671756"
       gradientTransform="matrix(1,0,0,1.0232282,0,-13.341263)"
       gradientUnits="userSpaceOnUse" />
    <linearGradient
       inkscape:collect="always"
       xlink:href="#linearGradient3258"
       id="linearGradient3264"
       x1="300.60361"
       y1="544.72681"
       x2="354.51379"
       y2="598.80414"
       gradientUnits="userSpaceOnUse" />
    <radialGradient
       inkscape:collect="always"
       xlink:href="#linearGradient4296"
       id="radialGradient3465"
       cx="304.59238"
       cy="576.44403"
       fx="304.59238"
       fy="576.44403"
       r="7.8661478"
       gradientTransform="matrix(0.76699112,0.33797369,-0.65057603,1.5336199,445.57079,-410.2301)"
       gradientUnits="userSpaceOnUse" />
    <radialGradient
       inkscape:collect="always"
       xlink:href="#linearGradient3469"
       id="radialGradient3467"
       cx="316.90671"
       cy="550.9397"
       fx="316.90671"
       fy="550.9397"
       r="3.2352532"
       gradientTransform="matrix(0.56847698,0.55122442,-0.86018562,0.92148696,610.66295,-131.43075)"
       gradientUnits="userSpaceOnUse" />
    <radialGradient
       inkscape:collect="always"
       xlink:href="#linearGradient3479"
       id="radialGradient3477"
       cx="349.59592"
       cy="562.99506"
       fx="349.59592"
       fy="562.99506"
       r="5.9967934"
       gradientTransform="matrix(0.62249559,-0.66686048,1.0807302,1.0479273,-476.5318,206.44403)"
       gradientUnits="userSpaceOnUse" />
    <radialGradient
       inkscape:collect="always"
       xlink:href="#linearGradient3497"
       id="radialGradient3487"
       cx="348.92651"
       cy="597.21527"
       fx="348.92651"
       fy="597.21527"
       r="27.162861"
       gradientTransform="matrix(0.3909718,0.43756795,-2.4916173,2.3125644,1692.1431,-933.55267)"
       gradientUnits="userSpaceOnUse" />
    <radialGradient
       inkscape:collect="always"
       xlink:href="#linearGradient3703"
       id="radialGradient3709"
       cx="343.47229"
       cy="614.76147"
       fx="343.47229"
       fy="614.76147"
       r="18.21089"
       gradientTransform="matrix(3.5311082,-1.7278711,0.20305564,0.43105154,-994.19633,937.70847)"
       gradientUnits="userSpaceOnUse" />
    <radialGradient
       inkscape:collect="always"
       xlink:href="#linearGradient3711"
       id="radialGradient3717"
       cx="362.10602"
       cy="577.11127"
       fx="362.10602"
       fy="577.11127"
       r="1.8832989"
       gradientTransform="matrix(8.1481487,-5.9318526,2.3638508,3.372883,-3952.5926,778.81887)"
       gradientUnits="userSpaceOnUse" />
    <radialGradient
       inkscape:collect="always"
       xlink:href="#linearGradient3711"
       id="radialGradient3739"
       cx="288.94055"
       cy="577.95142"
       fx="288.94055"
       fy="577.95142"
       r="1.2844789"
       gradientTransform="matrix(1.1719452,0.0481994,-0.12453532,3.1453612,22.305156,-1253.771)"
       gradientUnits="userSpaceOnUse" />
    <radialGradient
       inkscape:collect="always"
       xlink:href="#linearGradient3479"
       id="radialGradient4111"
       gradientUnits="userSpaceOnUse"
       gradientTransform="matrix(0.62249559,-0.66686048,1.0807302,1.0479273,-476.5318,206.44403)"
       cx="349.59592"
       cy="562.99506"
       fx="349.59592"
       fy="562.99506"
       r="5.9967934" />
    <radialGradient
       inkscape:collect="always"
       xlink:href="#linearGradient3711-7"
       id="radialGradient3739-3"
       cx="288.94055"
       cy="577.95142"
       fx="288.94055"
       fy="577.95142"
       r="1.2844789"
       gradientTransform="matrix(1.1719452,0.0481994,-0.12453532,3.1453612,22.305156,-1253.771)"
       gradientUnits="userSpaceOnUse" />
    <linearGradient
       inkscape:collect="always"
       id="linearGradient3711-7">
      <stop
         style="stop-color:#53e1ff;stop-opacity:1;"
         offset="0"
         id="stop3713-8" />
      <stop
         style="stop-color:#53e1ff;stop-opacity:0;"
         offset="1"
         id="stop3715-2" />
    </linearGradient>
    <radialGradient
       inkscape:collect="always"
       xlink:href="#linearGradient4188"
       id="radialGradient4194"
       cx="343.45349"
       cy="578.40057"
       fx="343.45349"
       fy="578.40057"
       r="6.5527597"
       gradientTransform="matrix(1.0098243,1.0314263,-1.7978462,1.8284117,1041.0412,-837.25268)"
       gradientUnits="userSpaceOnUse" />
    <linearGradient
       y2="22.401928"
       x2="106.24998"
       y1="22.901928"
       x1="143.49998"
       gradientTransform="matrix(1.2113408,0,0,1.2113407,182.53634,525.19736)"
       gradientUnits="userSpaceOnUse"
       id="linearGradient6058"
       xlink:href="#linearGradient5507-3"
       inkscape:collect="always" />
    <linearGradient
       id="linearGradient5507-3">
      <stop
         style="stop-color:#ff0000;stop-opacity:1;"
         offset="0"
         id="stop5509-1" />
      <stop
         style="stop-color:#ff6600;stop-opacity:1"
         offset="1"
         id="stop5511-9" />
    </linearGradient>
    <linearGradient
       y2="22.401928"
       x2="106.24998"
       y1="22.901928"
       x1="143.49998"
       gradientTransform="matrix(1.2113408,0,0,1.2113407,182.53634,525.19736)"
       gradientUnits="userSpaceOnUse"
       id="linearGradient7423"
       xlink:href="#linearGradient5507-3"
       inkscape:collect="always" />
    <linearGradient
       id="linearGradient7425">
      <stop
         style="stop-color:#ff0000;stop-opacity:1;"
         offset="0"
         id="stop7427" />
      <stop
         style="stop-color:#ff6600;stop-opacity:1"
         offset="1"
         id="stop7429" />
    </linearGradient>
    <linearGradient
       y2="22.401928"
       x2="106.24998"
       y1="22.901928"
       x1="143.49998"
       gradientTransform="matrix(1.2113409,0,0,1.2113407,208.97128,529.26847)"
       gradientUnits="userSpaceOnUse"
       id="linearGradient7433"
       xlink:href="#linearGradient5507-3"
       inkscape:collect="always" />
    <linearGradient
       inkscape:collect="always"
       xlink:href="#linearGradient5507-3"
       id="linearGradient3187"
       gradientUnits="userSpaceOnUse"
       gradientTransform="matrix(0.66768777,0,0,0.66768766,249.27622,537.99469)"
       x1="143.49998"
       y1="22.901928"
       x2="106.24998"
       y2="22.401928" />
    <linearGradient
       inkscape:collect="always"
       xlink:href="#linearGradient3258-6"
       id="linearGradient3264-6"
       x1="300.60361"
       y1="544.72681"
       x2="354.51379"
       y2="598.80414"
       gradientUnits="userSpaceOnUse" />
    <linearGradient
       inkscape:collect="always"
       id="linearGradient3258-6">
      <stop
         style="stop-color:#26c0e4;stop-opacity:1"
         offset="0"
         id="stop3260-3" />
      <stop
         style="stop-color:#009be6;stop-opacity:1"
         offset="1"
         id="stop3262-0" />
    </linearGradient>
    <radialGradient
       inkscape:collect="always"
       xlink:href="#linearGradient3479-0"
       id="radialGradient4111-9"
       gradientUnits="userSpaceOnUse"
       gradientTransform="matrix(0.62249559,-0.66686048,1.0807302,1.0479273,-476.5318,206.44403)"
       cx="349.59592"
       cy="562.99506"
       fx="349.59592"
       fy="562.99506"
       r="5.9967933" />
    <linearGradient
       id="linearGradient3479-0">
      <stop
         id="stop3481-8"
         offset="0"
         style="stop-color:#005e96;stop-opacity:1" />
      <stop
         style="stop-color:#006bab;stop-opacity:1"
         offset="0.55290782"
         id="stop3483-0" />
      <stop
         id="stop3485-1"
         offset="1"
         style="stop-color:#16afe5;stop-opacity:1" />
    </linearGradient>
    <radialGradient
       inkscape:collect="always"
       xlink:href="#linearGradient3469-1"
       id="radialGradient3467-5"
       cx="316.90671"
       cy="550.9397"
       fx="316.90671"
       fy="550.9397"
       r="3.2352531"
       gradientTransform="matrix(0.56847698,0.55122442,-0.86018562,0.92148696,610.66295,-131.43075)"
       gradientUnits="userSpaceOnUse" />
    <linearGradient
       id="linearGradient3469-1">
      <stop
         style="stop-color:#0069a4;stop-opacity:1"
         offset="0"
         id="stop3471-0" />
      <stop
         id="stop3473-3"
         offset="0.62723601"
         style="stop-color:#006bab;stop-opacity:1" />
      <stop
         style="stop-color:#16b0e5;stop-opacity:1"
         offset="1"
         id="stop3475-9" />
    </linearGradient>
    <radialGradient
       inkscape:collect="always"
       xlink:href="#linearGradient4296-8"
       id="radialGradient3465-5"
       cx="304.59238"
       cy="576.44403"
       fx="304.59238"
       fy="576.44403"
       r="7.866148"
       gradientTransform="matrix(0.76699112,0.33797369,-0.65057603,1.5336199,445.57079,-410.2301)"
       gradientUnits="userSpaceOnUse" />
    <linearGradient
       id="linearGradient4296-8">
      <stop
         id="stop4298-9"
         offset="0"
         style="stop-color:#0068af;stop-opacity:1" />
      <stop
         style="stop-color:#006bab;stop-opacity:1"
         offset="0.65370244"
         id="stop4300-6" />
      <stop
         id="stop4302-2"
         offset="1"
         style="stop-color:#16b0e5;stop-opacity:1" />
    </linearGradient>
    <radialGradient
       inkscape:collect="always"
       xlink:href="#linearGradient3497-7"
       id="radialGradient3487-5"
       cx="348.92651"
       cy="597.21527"
       fx="348.92651"
       fy="597.21527"
       r="27.162861"
       gradientTransform="matrix(0.3909718,0.43756795,-2.4916173,2.3125644,1692.1431,-933.55267)"
       gradientUnits="userSpaceOnUse" />
    <linearGradient
       id="linearGradient3497-7">
      <stop
         style="stop-color:#005e96;stop-opacity:1"
         offset="0"
         id="stop3499-6" />
      <stop
         id="stop3501-3"
         offset="0.30073237"
         style="stop-color:#006bab;stop-opacity:1" />
      <stop
         style="stop-color:#16afe5;stop-opacity:1"
         offset="1"
         id="stop3503-8" />
    </linearGradient>
    <radialGradient
       inkscape:collect="always"
       xlink:href="#linearGradient3703-9"
       id="radialGradient3709-5"
       cx="343.47229"
       cy="614.76147"
       fx="343.47229"
       fy="614.76147"
       r="18.21089"
       gradientTransform="matrix(3.5311082,-1.7278711,0.20305564,0.43105154,-994.19633,937.70847)"
       gradientUnits="userSpaceOnUse" />
    <linearGradient
       inkscape:collect="always"
       id="linearGradient3703-9">
      <stop
         style="stop-color:#53e1ff;stop-opacity:1;"
         offset="0"
         id="stop3705-3" />
      <stop
         style="stop-color:#53e1ff;stop-opacity:0;"
         offset="1"
         id="stop3707-0" />
    </linearGradient>
    <radialGradient
       inkscape:collect="always"
       xlink:href="#linearGradient3711-5"
       id="radialGradient3717-2"
       cx="362.10602"
       cy="577.11127"
       fx="362.10602"
       fy="577.11127"
       r="1.8832989"
       gradientTransform="matrix(8.1481487,-5.9318526,2.3638508,3.372883,-3952.5926,778.81887)"
       gradientUnits="userSpaceOnUse" />
    <linearGradient
       inkscape:collect="always"
       id="linearGradient3711-5">
      <stop
         style="stop-color:#53e1ff;stop-opacity:1;"
         offset="0"
         id="stop3713-1" />
      <stop
         style="stop-color:#53e1ff;stop-opacity:0;"
         offset="1"
         id="stop3715-5" />
    </linearGradient>
    <radialGradient
       inkscape:collect="always"
       xlink:href="#linearGradient3711-5"
       id="radialGradient3739-7"
       cx="288.94055"
       cy="577.95142"
       fx="288.94055"
       fy="577.95142"
       r="1.2844789"
       gradientTransform="matrix(1.1719452,0.0481994,-0.12453532,3.1453612,22.305156,-1253.771)"
       gradientUnits="userSpaceOnUse" />
    <radialGradient
       inkscape:collect="always"
       xlink:href="#linearGradient4188-9"
       id="radialGradient4194-7"
       cx="343.45349"
       cy="578.40057"
       fx="343.45349"
       fy="578.40057"
       r="6.5527596"
       gradientTransform="matrix(1.0098243,1.0314263,-1.7978462,1.8284117,1041.0412,-837.25268)"
       gradientUnits="userSpaceOnUse" />
    <linearGradient
       id="linearGradient4188-9">
      <stop
         style="stop-color:#08a3e6;stop-opacity:1"
         offset="0"
         id="stop4190-4" />
      <stop
         id="stop4196-1"
         offset="0.75918519"
         style="stop-color:#08a3e6;stop-opacity:1" />
      <stop
         style="stop-color:#016ead;stop-opacity:1"
         offset="1"
         id="stop4192-7" />
    </linearGradient>
    <radialGradient
       inkscape:collect="always"
       xlink:href="#linearGradient3703-9"
       id="radialGradient3517"
       gradientUnits="userSpaceOnUse"
       gradientTransform="matrix(3.5311082,-1.7278711,0.20305564,0.43105154,-994.19633,937.70847)"
       cx="343.47229"
       cy="614.76147"
       fx="343.47229"
       fy="614.76147"
       r="18.21089" />
  </defs>
  <sodipodi:namedview
     id="base"
     pagecolor="#ffffff"
     bordercolor="#666666"
     borderopacity="1.0"
     inkscape:pageopacity="0.0"
     inkscape:pageshadow="2"
     inkscape:zoom="4.5390625"
     inkscape:cx="114.45855"
     inkscape:cy="59.690241"
     inkscape:document-units="px"
     inkscape:current-layer="g4793"
     showgrid="false"
     fit-margin-top="0"
     fit-margin-left="0"
     fit-margin-right="0"
     fit-margin-bottom="0"
     inkscape:window-width="1280"
     inkscape:window-height="780"
     inkscape:window-x="-8"
     inkscape:window-y="-8"
     inkscape:window-maximized="1"
     inkscape:snap-global="false"
     showguides="true"
     inkscape:guide-bbox="true" />
  <metadata
     id="metadata3765">
    <rdf:RDF>
      <cc:Work
         rdf:about="">
        <dc:format>image/svg+xml</dc:format>
        <dc:type
           rdf:resource="http://purl.org/dc/dcmitype/StillImage" />
        <dc:title />
      </cc:Work>
    </rdf:RDF>
  </metadata>
  <g
     inkscape:label="Layer 1"
     inkscape:groupmode="layer"
     id="layer1"
     transform="translate(-288.98475,-535.52559)">
    <g
       id="g4793"
       transform="matrix(0.96766596,0,0,0.94944363,10.181651,28.771222)">
      <text
         xml:space="preserve"
         style="font-size:26.70750427px;font-style:normal;font-weight:normal;line-height:125%;letter-spacing:0px;word-spacing:0px;fill:url(#linearGradient3187);fill-opacity:1;stroke:none;font-family:StoneSerITCStd Medium;-inkscape-font-specification:StoneSerITCStd Medium"
         x="312.53961"
         y="554.12061"
         id="text5503"
         sodipodi:linespacing="125%"
         transform="scale(0.99053965,1.0095507)"><tspan
           sodipodi:role="line"
           id="tspan5505"
           x="312.53961"
           y="554.12061"
           style="font-size:4.00612593px;fill:url(#linearGradient3187);fill-opacity:1">Created by Falzar FZ</tspan></text>
      <g
         transform="translate(0.00152892,0.01017347)"
         id="g3264">
        <path
           style="fill:#010101;fill-opacity:1;stroke:none"
           d="m 325.12487,533.76805 c -12.04619,0.12786 -23.83129,6.47825 -30.10708,16.8382 -9.98334,15.47574 -9.2208,37.5796 3.10803,51.55872 7.91058,8.9416 20.14109,13.52621 31.99522,12.68526 12.96871,-0.25474 25.57911,-7.74217 31.66968,-19.25774 5.39871,-9.43832 6.92244,-20.84042 4.7256,-31.45827 -2.298,-13.99137 -13.54381,-26.2257 -27.38604,-29.44165 -4.60618,-0.8471 -9.33291,-0.96193 -14.00541,-0.92452 z"
           id="path3048"
           inkscape:connector-curvature="0" />
        <path
           sodipodi:nodetypes="ccccccccccssccccc"
           inkscape:connector-curvature="0"
           id="path3145"
           d="m 329.88599,534.82609 c -5.56596,-0.11419 -15.21291,3.26596 -19.12396,5.04863 3.12484,-2.19454 5.79848,-3.84761 6.92882,-4.82316 -4.86717,0.58915 -10.88914,1.52377 -18.40678,9.41093 -7.35667,6.54181 -7.20755,14.81733 -6.22553,16.68028 0.38786,0.73581 1.31524,-2.2891 2.60287,-3.33027 0.78412,7.50265 -1.90903,16.62544 -1.35934,24.07715 0.99437,5.93651 3.23908,8.72084 5.55404,12.00372 0.4492,5.4792 0.39461,7.45622 4.99275,11.23594 12.07138,6.93759 17.5996,9.69169 27.35451,9.77282 5.27652,-0.31919 15.13155,-3.79847 19.10213,-7.02703 9.02465,-7.33807 14.92286,-17.49475 13.26733,-27.22849 -0.26872,-1.58 1.73714,3.11489 2.06325,1.50077 1.76172,-5.95164 0.005,-15.30426 -1.71264,-20.26763 -2.79318,-7.85221 -8.32489,-10.37294 -15.29301,-18.80026 -2.20536,-2.30672 -4.67073,-4.39974 -10.41954,-6.58402 -2.03618,-1.1538 -6.9747,-2.151 -9.3249,-1.66938 z"
           style="fill:url(#linearGradient3264-6);fill-opacity:1;stroke:none" />
        <path
           sodipodi:nodetypes="sssss"
           inkscape:connector-curvature="0"
           id="path3339"
           d="m 345.24588,557.39427 c -5.21865,0.33707 0.4045,8.22951 1.83736,10.55349 2.3188,3.76094 7.36229,1.74355 7.90002,-2.35066 0.50908,-3.8761 -1.42506,-8.59568 -5.14411,-7.68492 -0.60461,0.14807 -3.97295,-0.55797 -4.59327,-0.51791 z"
           style="fill:url(#radialGradient4111-9);fill-opacity:1;stroke:none" />
        <path
           sodipodi:nodetypes="sss"
           inkscape:connector-curvature="0"
           id="path3341"
           d="m 318.17033,547.66277 c -4.39993,0.0406 -7.18565,8.5667 -0.5186,6.10927 1.91509,-0.70589 4.22511,-6.14344 0.5186,-6.10927 z"
           style="fill:url(#radialGradient3467-5);fill-opacity:1;stroke:none" />
        <path
           sodipodi:nodetypes="ssssss"
           inkscape:connector-curvature="0"
           id="path3343"
           d="m 307.54699,564.01915 c -4.95047,2.50372 -8.03782,7.73897 -10.59883,12.55889 -1.85272,3.48688 -2.00959,8.80878 1.00045,11.40183 2.4949,2.14928 9.04917,0.079 10.50812,-3.26391 4.24477,-9.7261 2.91597,-16.69276 1.60034,-18.24001 -0.75878,-0.89238 -1.37187,-3.03245 -2.51008,-2.4568 z"
           style="fill:url(#radialGradient3465-5);fill-opacity:1;stroke:none" />
        <path
           sodipodi:nodetypes="ccccccccccccccc"
           style="fill:url(#radialGradient3487-5);fill-opacity:1;stroke:none"
           d="m 361.8826,559.26603 c -2.41508,3.30408 -1.93143,7.8378 -3.40591,11.57961 -1.6496,4.2746 -3.51792,8.79073 -7.56233,11.33818 -6.32899,3.31265 -5.24575,0.52613 -10.46283,-1.21999 -3.46818,-0.006 -5.87011,3.23019 -7.69238,5.86282 -2.84612,3.98201 -4.51354,9.04185 -8.35654,12.1027 -3.97896,2.97281 -8.79662,4.53738 -13.07855,6.93137 -1.2868,1.30661 0.61634,2.87511 1.7645,3.37079 4.12711,2.36811 8.97523,2.03089 13.52942,1.67743 7.4485,-0.51948 14.80316,-3.04658 21.09858,-7.11004 2.89375,-2.52091 6.43571,-4.47896 8.75729,-7.58064 1.63382,-4.45435 4.12636,-8.84572 3.91912,-13.79948 0.15507,-4.1226 -0.0208,-8.56443 2.53727,-12.01686 1.73294,-2.67364 3.33218,-6.25421 1.4262,-9.27427 -0.56842,-0.86076 -1.47104,-1.63859 -2.47384,-1.86162 z"
           id="path3410"
           inkscape:connector-curvature="0" />
        <path
           style="fill:url(#radialGradient3517);fill-opacity:1;stroke:none"
           d="m 358.05902,595.44717 c -6.4693,7.00349 -17.56173,16.30017 -36.42178,16.05538 1.83564,1.99741 7.03568,1.21626 9.49511,1.17729 8.5417,-1.30659 24.89403,-8.20669 26.92667,-17.23267 z"
           id="path3563"
           inkscape:connector-curvature="0"
           sodipodi:nodetypes="cccc" />
        <path
           style="fill:url(#radialGradient3717-2);fill-opacity:1;stroke:none"
           d="m 364.58921,569.21704 c -3.80525,3.27884 -4.04647,13.23384 -3.60507,15.61239 0.97995,-3.60758 1.71247,-9.0971 3.60507,-15.61239 z"
           id="path3565"
           inkscape:connector-curvature="0"
           sodipodi:nodetypes="ccc" />
        <path
           sodipodi:nodetypes="ccc"
           inkscape:connector-curvature="0"
           id="path3719"
           d="m 288.61547,580.7792 c 2.56263,0.26563 2.18451,-4.10153 2.13511,-5.56824 -3.67048,-3.24718 -2.40921,3.45206 -2.13511,5.56824 z"
           style="fill:url(#radialGradient3739-7);stroke:none" />
        <path
           sodipodi:nodetypes="ccc"
           inkscape:connector-curvature="0"
           id="path3719-6"
           d="m 345.93033,583.72173 c 7.74025,2.61755 13.36733,-6.35566 13.09612,-14.83118 -2.3917,6.43469 -4.78409,9.22394 -13.09612,14.83118 z"
           style="fill:url(#radialGradient4194-7);fill-opacity:1;stroke:none" />
        <g
           style="fill:#ffffff;fill-opacity:1"
           transform="matrix(1.0587556,0,0,1.0587556,-111.43738,-29.537832)"
           id="g3106">
          <path
             style="fill:#ffffff;fill-opacity:1;stroke:none"
             d="m 422.74886,567.73734 c 3.41933,-0.16258 7.77669,-2.61433 9.52776,-4.27806 1.75108,-1.66372 0.89589,-2.53943 -0.95828,-3.48779 -3.22432,0.70099 -9.90773,4.13611 -13.08557,5.50961 -1.10003,0.96205 -0.0437,-9.77457 -1.26266,-12.5507 -1.38132,-3.09251 -2.90444,-2.54525 -3.6608,-0.22437 -0.611,6.7259 -0.0319,36.6463 -0.0119,42.73497 1.40327,2.55043 2.50857,2.28341 4.07542,0.15453 1.10564,-3.79223 -0.76782,-28.76456 1.3208,-26.15355 4.73789,3.32941 8.27349,8.41545 11.56228,12.71954 2.8671,3.75222 7.02161,13.41369 15.29504,3.34561 -4.32278,4.2e-4 -7.83086,-2.05512 -15.15298,-9.80773"
             id="path3061"
             inkscape:connector-curvature="0"
             sodipodi:nodetypes="cscccccccscc" />
          <path
             style="fill:#ffffff;fill-opacity:1;stroke:none"
             d="m 394.65047,565.57755 c -0.9882,0.46071 -1.01279,2.8546 -0.39646,3.09634 5.21444,0.13614 9.84726,-0.13094 12.85159,0.10649 -5.01503,10.46534 -9.61862,14.79609 -18.90105,16.38429 2.26911,8.80284 11.96793,1.04504 14.38112,-2.06343 2.81543,-3.62661 7.97553,-8.12728 9.07251,-17.58816 -6.61799,-0.14362 -11.26133,-0.0948 -17.00771,0.0645 z"
             id="path3063"
             inkscape:connector-curvature="0"
             sodipodi:nodetypes="ccccscc" />
        </g>
        <g
           transform="matrix(1.0173912,0,0,1.0173912,-65.943687,-13.145721)"
           style="fill:#ffffff;fill-opacity:1"
           id="g3184">
          <path
             style="fill:#ffffff;fill-opacity:1;stroke:none"
             d="m 359.8794,545.45839 c -0.11838,0.25585 0.0458,0.56803 0.37153,0.54659 0.79146,0.15493 1.03947,1.00638 1.24081,1.63716 0.85644,2.65461 1.6413,5.33986 2.44398,8.01337 0.20201,0.12435 0.61871,0.0842 0.82666,-0.0272 1.01486,-2.52989 1.99396,-5.07345 3.03357,-7.5939 1.03185,2.51717 1.98308,5.07483 3.02592,7.58121 0.19695,0.18398 0.54609,0.10922 0.78241,0.0743 1.05035,-3.01632 1.97573,-6.07725 3.07396,-9.0786 0.16411,-0.41605 0.62534,-0.54285 1.01121,-0.70881 0.20184,-0.14496 0.20443,-0.59425 -0.15379,-0.4804 -1.06509,0.0165 -2.1452,-0.0325 -3.20111,0.024 -0.18236,0.21747 0.03,0.5807 0.34244,0.53253 0.38832,-0.006 0.97087,0.20668 0.88625,0.65987 -0.25112,1.16499 -0.68239,2.3051 -1.02169,3.45512 -0.33327,1.02498 -0.64822,2.04896 -1.01031,3.06378 -1.02082,-2.50152 -2.01096,-5.01366 -3.01438,-7.5214 -0.1836,-0.0928 -0.68047,-0.22368 -0.74278,0.0743 -0.9896,2.48275 -1.9614,4.99219 -2.96365,7.45802 -0.61605,-2.09306 -1.31551,-4.17206 -1.82632,-6.28686 -0.0752,-0.27433 -0.1023,-0.65391 0.24032,-0.78133 0.24979,-0.19065 0.8095,-0.019 0.84971,-0.40244 0.0905,-0.44696 -0.51868,-0.22371 -0.78819,-0.27555 -1.1241,0.0162 -2.26306,-0.0323 -3.37796,0.024 l -0.0287,0.0122 z"
             id="path3114"
             inkscape:connector-curvature="0" />
          <path
             style="fill:#ffffff;fill-opacity:1;stroke:none"
             d="m 379.34418,545.28618 c -1.26221,3.06284 -2.43926,6.18347 -3.81101,9.20006 -0.1869,0.40635 -0.61762,0.6484 -1.05817,0.76501 -0.20454,0.14826 -0.14587,0.59198 0.19508,0.47496 0.92995,-0.0239 1.88241,0.0479 2.79817,-0.0363 0.14086,-0.26424 -0.0814,-0.52595 -0.37639,-0.53659 -0.44759,-0.0993 -0.54818,-0.59904 -0.3703,-0.9426 0.20096,-0.6049 0.44007,-1.21496 0.66194,-1.82014 1.28544,0 2.5709,0 3.85635,0 0.24688,0.81614 0.67438,1.59828 0.74485,2.4455 -0.0314,0.40544 -0.59358,0.27425 -0.86113,0.44776 -0.15729,0.1707 -0.0913,0.55092 0.23056,0.44233 1.15486,-0.0162 2.32493,0.0322 3.47036,-0.024 0.15426,-0.21356 -0.0315,-0.56014 -0.3372,-0.55429 -0.5889,-0.13837 -0.65205,-0.79731 -0.88415,-1.22337 -1.10599,-2.84799 -2.11997,-5.73717 -3.18108,-8.60393 -0.27432,-0.14169 -0.76283,-0.0695 -1.07788,-0.0344 z m 0.14583,1.91977 c 0.49263,1.47154 1.02739,2.9856 1.46607,4.45048 -1.09307,0.0476 -2.19165,0.0446 -3.28488,0.007 0.60636,-1.48184 1.19856,-2.9992 1.81881,-4.45772 z"
             id="path3116"
             inkscape:connector-curvature="0" />
          <path
             style="fill:#ffffff;fill-opacity:1;stroke:none"
             d="m 385.36437,545.45839 c -0.16011,0.72138 -0.31655,1.45696 -0.43332,2.18627 0.13772,0.28408 0.59292,0.0938 0.65956,-0.16135 0.32504,-0.64004 0.81077,-1.40132 1.6585,-1.41762 0.52216,-0.0416 1.04694,-0.0225 1.57029,-0.0272 -0.0213,2.8754 0.0478,5.75291 -0.0478,8.62697 0.0146,0.42441 -0.54362,0.52377 -0.89176,0.50783 -0.31129,-0.0376 -0.49799,0.41376 -0.23774,0.55291 1.36658,-0.016 2.74783,0.032 4.10526,-0.024 0.17406,-0.2008 0.0113,-0.54109 -0.28977,-0.50533 -0.34594,-0.0352 -0.92892,-0.0783 -0.89541,-0.53453 -0.0963,-2.87291 -0.0262,-5.7495 -0.0479,-8.62384 0.75549,0.0535 1.60162,-0.14073 2.28355,0.24654 0.53597,0.35001 0.74543,0.958 1.12548,1.42488 0.16989,0.16366 0.54945,0.039 0.42948,-0.21573 -0.1448,-0.6581 -0.20919,-1.35107 -0.37503,-1.9936 -0.32586,-0.12778 -0.74902,-0.0234 -1.10705,-0.0654 -2.47392,-0.0224 -4.94802,-0.01 -7.42202,-0.0131 l -0.0558,0.024 -0.0286,0.0122 z"
             id="path3118"
             inkscape:connector-curvature="0" />
          <path
             style="fill:#ffffff;fill-opacity:1;stroke:none"
             d="m 395.51,545.45839 c -0.11447,0.22369 0.0164,0.51865 0.30415,0.50397 0.32778,0.0481 0.92153,0.0637 0.90782,0.49834 0.0755,2.61655 0.0525,5.23604 0.0238,7.85332 0.0151,0.30332 -0.0153,0.72025 -0.39599,0.80127 -0.27458,0.0991 -0.8559,-0.0576 -0.86659,0.368 -0.0485,0.43182 0.57707,0.17237 0.84554,0.24007 2.25289,-0.009 4.50577,-0.0174 6.75864,-0.0262 0.25051,-0.23028 0.15464,-0.68596 0.26615,-1.00497 0.0504,-0.54236 0.27408,-1.09009 0.2102,-1.63269 -0.18826,-0.25343 -0.54405,0.0189 -0.57199,0.25379 -0.26956,0.68441 -0.63661,1.50732 -1.47875,1.68049 -0.85602,0.16305 -1.80401,0.1756 -2.63994,-0.0616 -0.49488,-0.15211 -0.35756,-0.74808 -0.40442,-1.12752 -0.0164,-1.04472 -0.005,-2.08962 -0.009,-3.13442 0.65279,0.0545 1.34607,-0.0575 1.97422,0.13052 0.47339,0.1969 0.50352,0.74309 0.68677,1.1312 0.16282,0.17097 0.58056,0.095 0.46103,-0.1976 -0.0169,-0.96338 0.0337,-1.94059 -0.0254,-2.89531 -0.2354,-0.17949 -0.55522,0.0388 -0.54727,0.30869 -0.0531,0.50351 -0.52341,0.93017 -1.07243,0.88471 -0.49182,0.0251 -0.98468,0.0262 -1.47698,0.0396 0,-1.34451 0,-2.68902 0,-4.03353 0.85738,0.0272 1.74155,-0.0607 2.58446,0.0816 0.69294,0.27254 0.79186,1.06432 0.9546,1.66236 0.14929,0.204 0.68998,0.16814 0.56242,-0.16678 -0.026,-0.71998 0.0516,-1.46125 -0.0383,-2.16814 -1.60629,-0.0594 -3.23331,-0.008 -4.84755,-0.0254 -0.71828,0.0237 -1.46144,-0.0477 -2.16552,0.0363 z"
             id="path3120"
             inkscape:connector-curvature="0" />
          <path
             style="fill:#ffffff;fill-opacity:1;stroke:none"
             d="m 405.40896,545.34237 c -0.11684,0.26885 0.10022,0.56583 0.43803,0.52373 0.33504,0.0156 0.88136,0.0901 0.83137,0.49673 0.0874,2.72035 0.0499,5.44392 0.0135,8.1651 0.10297,0.44079 -0.53481,0.49827 -0.87031,0.52826 -0.28433,-0.0125 -0.52762,0.18365 -0.43303,0.44885 0.23963,0.23798 0.75251,0.0407 1.09733,0.10515 1.12744,-0.016 2.27045,0.0319 3.38814,-0.024 0.17204,-0.18595 0.0203,-0.52777 -0.28378,-0.50353 -0.37301,-0.0689 -1.03401,-0.0922 -1.03412,-0.5511 -0.0557,-1.1379 -0.0129,-2.27831 -0.0265,-3.41716 0.45824,0 0.91648,0 1.37473,0 0.91598,1.36159 1.93415,2.79827 2.95875,4.09697 0.38965,0.51481 1.1636,0.37678 1.75817,0.40279 0.23841,-0.043 0.66906,0.0656 0.76081,-0.19794 -0.12218,-0.30388 -0.54434,-0.41448 -0.7404,-0.68343 -1.10272,-1.07456 -1.91178,-2.36001 -2.83398,-3.55644 -0.14996,-0.1831 -0.37829,-0.40056 -0.005,-0.46802 1.19398,-0.487 2.0591,-1.60363 1.98051,-2.79175 0.0684,-0.84699 -0.39659,-1.69655 -1.21972,-2.13731 -1.11983,-0.61152 -2.73164,-0.41759 -3.98267,-0.47134 -1.04527,0.0119 -2.10585,-0.0328 -3.14133,0.0222 l -0.0304,0.0122 z m 3.99975,0.58917 c 0.64908,-0.0163 1.58146,0.0123 2.03481,0.47859 0.68732,0.71985 0.58241,1.75013 0.43852,2.62496 -0.15428,0.67007 -0.90029,1.3485 -1.71866,1.42306 -0.53583,0.0604 -1.09115,0.0866 -1.63376,0.0508 -0.0538,-1.53126 -0.025,-3.06373 -0.0326,-4.59551 0.30389,0.006 0.60781,0.0121 0.91171,0.0181 z"
             id="path3122"
             inkscape:connector-curvature="0"
             sodipodi:nodetypes="cccccccccccccccccccccccccccccccc" />
        </g>
      </g>
    </g>
  </g>
</svg>
