<?xml version="1.0" encoding="UTF-8" standalone="no"?>
<!-- Created with Inkscape (http://www.inkscape.org/) -->

<svg
   xmlns:dc="http://purl.org/dc/elements/1.1/"
   xmlns:cc="http://creativecommons.org/ns#"
   xmlns:rdf="http://www.w3.org/1999/02/22-rdf-syntax-ns#"
   xmlns:svg="http://www.w3.org/2000/svg"
   xmlns="http://www.w3.org/2000/svg"
   xmlns:xlink="http://www.w3.org/1999/xlink"
   xmlns:sodipodi="http://sodipodi.sourceforge.net/DTD/sodipodi-0.dtd"
   xmlns:inkscape="http://www.inkscape.org/namespaces/inkscape"
   width="77.178001"
   height="77.482025"
   id="svg3164"
   version="1.1"
   inkscape:version="0.48.1 "
   sodipodi:docname="WIND 3.svg.svg">
  <defs
     id="defs3166">
    <linearGradient
       y2="22.401928"
       x2="106.24998"
       y1="22.901928"
       x1="143.49998"
       gradientTransform="matrix(0.55062059,0,0,0.55062049,86.41587,585.27548)"
       gradientUnits="userSpaceOnUse"
       id="linearGradient3130"
       xlink:href="#linearGradient5507-3"
       inkscape:collect="always" />
    <linearGradient
       id="linearGradient5507-3">
      <stop
         style="stop-color:#ff0000;stop-opacity:1;"
         offset="0"
         id="stop5509-1" />
      <stop
         style="stop-color:#ff6600;stop-opacity:1"
         offset="1"
         id="stop5511-9" />
    </linearGradient>
    <linearGradient
       y2="22.401928"
       x2="106.24998"
       y1="22.901928"
       x1="143.49998"
       gradientTransform="matrix(0.55062059,0,0,0.55062049,86.41587,585.27548)"
       gradientUnits="userSpaceOnUse"
       id="linearGradient3138"
       xlink:href="#linearGradient5507-3"
       inkscape:collect="always" />
    <linearGradient
       id="linearGradient3140">
      <stop
         style="stop-color:#ff0000;stop-opacity:1;"
         offset="0"
         id="stop3142" />
      <stop
         style="stop-color:#ff6600;stop-opacity:1"
         offset="1"
         id="stop3144" />
    </linearGradient>
    <radialGradient
       inkscape:collect="always"
       xlink:href="#linearGradient3111-5"
       id="radialGradient3127"
       gradientUnits="userSpaceOnUse"
       gradientTransform="matrix(1.5920383,1.7587151,-1.0880994,0.98497827,381.30244,-618.59873)"
       cx="287.78745"
       cy="537.69501"
       fx="287.78745"
       fy="537.69501"
       r="39.671757" />
    <linearGradient
       id="linearGradient3111-5">
      <stop
         style="stop-color:#96cf6e;stop-opacity:1;"
         offset="0"
         id="stop3113-4" />
      <stop
         id="stop3134"
         offset="0.66444761"
         style="stop-color:#62b840;stop-opacity:1;" />
      <stop
         id="stop3119-9"
         offset="0.77443111"
         style="stop-color:#519b38;stop-opacity:1;" />
      <stop
         style="stop-color:#042500;stop-opacity:1;"
         offset="1"
         id="stop3115-5" />
    </linearGradient>
    <linearGradient
       y2="22.401928"
       x2="106.24998"
       y1="22.901928"
       x1="143.49998"
       gradientTransform="matrix(0.55062059,0,0,0.55062049,226.3229,426.09964)"
       gradientUnits="userSpaceOnUse"
       id="linearGradient3162"
       xlink:href="#linearGradient5507-3"
       inkscape:collect="always" />
    <filter
       id="filter3229"
       inkscape:label="Simple blur"
       x="0"
       y="0"
       width="1"
       height="1"
       inkscape:menu="ABCs"
       inkscape:menu-tooltip="Simple Gaussian blur, same as the blur slider in Fill and Stroke dialog"
       color-interpolation-filters="sRGB">
      <feTurbulence
         id="feTurbulence3231"
         numOctaves="1"
         baseFrequency="0.065432098765432101"
         result="result0"
         seed="179" />
      <feSpecularLighting
         id="feSpecularLighting3233"
         specularExponent="24.3"
         surfaceScale="2"
         specularConstant="1"
         result="result1">
        <feDistantLight
           id="feDistantLight3235"
           elevation="45"
           azimuth="225" />
      </feSpecularLighting>
      <feDiffuseLighting
         id="feDiffuseLighting3237"
         in="result0"
         surfaceScale="3"
         diffuseConstant="1.21"
         result="result2">
        <feDistantLight
           id="feDistantLight3239"
           azimuth="225"
           elevation="42" />
      </feDiffuseLighting>
      <feBlend
         id="feBlend3241"
         in2="SourceGraphic"
         mode="multiply"
         result="result91" />
      <feComposite
         id="feComposite3243"
         in2="result91"
         operator="arithmetic"
         in="result1"
         k2="1"
         k3="1"
         result="result92" />
      <feComposite
         id="feComposite3245"
         in2="SourceAlpha"
         operator="in"
         result="fbSourceGraphic" />
      <feGaussianBlur
         id="feGaussianBlur3019"
         stdDeviation="3"
         in="fbSourceGraphic" />
    </filter>
    <radialGradient
       inkscape:collect="always"
       xlink:href="#linearGradient3111-5"
       id="radialGradient3021"
       gradientUnits="userSpaceOnUse"
       gradientTransform="matrix(1.5920383,1.7587151,-1.0880994,0.98497827,381.30244,-618.59873)"
       cx="287.78745"
       cy="537.69501"
       fx="287.78745"
       fy="537.69501"
       r="39.671757" />
  </defs>
  <sodipodi:namedview
     id="base"
     pagecolor="#ffffff"
     bordercolor="#666666"
     borderopacity="1.0"
     inkscape:pageopacity="0.0"
     inkscape:pageshadow="2"
     inkscape:zoom="1.8027702"
     inkscape:cx="104.62715"
     inkscape:cy="97.29765"
     inkscape:document-units="px"
     inkscape:current-layer="layer1"
     showgrid="false"
     fit-margin-left="0.2"
     fit-margin-bottom="0.2"
     fit-margin-top="0.2"
     fit-margin-right="0.2"
     inkscape:window-width="1280"
     inkscape:window-height="780"
     inkscape:window-x="-8"
     inkscape:window-y="-8"
     inkscape:window-maximized="1" />
  <metadata
     id="metadata3169">
    <rdf:RDF>
      <cc:Work
         rdf:about="">
        <dc:format>image/svg+xml</dc:format>
        <dc:type
           rdf:resource="http://purl.org/dc/dcmitype/StillImage" />
        <dc:title />
      </cc:Work>
    </rdf:RDF>
  </metadata>
  <g
     inkscape:label="Layer 1"
     inkscape:groupmode="layer"
     id="layer1"
     transform="translate(-255.69671,-413.62117)">
    <text
       sodipodi:linespacing="125%"
       id="text5503"
       y="439.39819"
       x="278.49414"
       style="font-size:22.02481842px;font-style:normal;font-weight:normal;line-height:125%;letter-spacing:0px;word-spacing:0px;fill:url(#linearGradient3162);fill-opacity:1;stroke:none;font-family:StoneSerITCStd Medium;-inkscape-font-specification:StoneSerITCStd Medium"
       xml:space="preserve"><tspan
         style="font-size:3.30372286px;fill:url(#linearGradient3162);fill-opacity:1"
         y="439.39819"
         x="278.49414"
         id="tspan5505"
         sodipodi:role="line">Created by Falzar FZ</tspan></text>
    <path
       style="fill:url(#radialGradient3127);fill-opacity:1;stroke:none"
       d="m 291.68403,413.82694 c -11.65669,0.1214 -23.06073,6.15074 -29.13359,15.98693 -9.66053,14.69334 -8.92265,35.67971 3.00754,48.95209 7.65479,8.48955 19.48984,12.84238 30.96067,12.04394 12.54938,-0.24186 24.75204,-7.35075 30.64568,-18.28413 5.22414,-8.96116 6.6986,-19.78681 4.5728,-29.86786 -2.2237,-13.28402 -13.10589,-24.89982 -26.50054,-27.95319 -4.45724,-0.80427 -9.03114,-0.91329 -13.55256,-0.87778 z"
       id="path3048"
       inkscape:connector-curvature="0" />
    <path
       inkscape:connector-curvature="0"
       id="path3227"
       d="m 291.68403,413.82694 c -11.65669,0.1214 -23.06073,6.15074 -29.13359,15.98693 -9.66053,14.69334 -8.92265,35.67971 3.00754,48.95209 7.65479,8.48955 19.48984,12.84238 30.96067,12.04394 12.54938,-0.24186 24.75204,-7.35075 30.64568,-18.28413 5.22414,-8.96116 6.6986,-19.78681 4.5728,-29.86786 -2.2237,-13.28402 -13.10589,-24.89982 -26.50054,-27.95319 -4.45724,-0.80427 -9.03114,-0.91329 -13.55256,-0.87778 z"
       style="fill:url(#radialGradient3021);fill-opacity:1;stroke:none;filter:url(#filter3229);opacity:0.6"
       transform="matrix(0.93105854,0,0,0.93105854,20.288486,31.186508)" />
    <g
       id="g3240"
       transform="matrix(0.96766596,0,0,0.94944363,-105.49421,-91.942401)"
       style="fill:#ffffff;fill-opacity:1">
      <path
         sodipodi:nodetypes="cssccccccscsscccccccsscccccccccccccccccccccc"
         inkscape:connector-curvature="0"
         d="m 129.07417,25.414499 c -5.4854,1.898261 -14.18733,2.29332 -19.35269,2.455672 -3.5955,0.113009 -0.55689,3.661201 1.74092,3.322916 4.67322,-0.687993 6.82704,-0.254247 6.82704,-0.254247 l 0.0135,5.730395 -10.76021,-0.119822 -0.0668,13.852023 8.34652,-0.08248 c 0,0 -2.40736,5.088053 -6.24805,8.762852 -0.38876,1.235158 0.46396,2.050028 2.19179,2.053178 4.62454,0.0084 13.44698,-0.144463 17.73991,-0.382095 0.68995,-2.717179 -0.40475,-6.614112 -2.28087,-8.22101 -1.17409,-1.005608 -2.68167,-0.78684 -2.39762,0.78164 0.38705,2.137209 1.0323,4.13243 1.0323,4.13243 l -9.31429,-0.03159 c 0,0 2.01332,-3.38023 3.95024,-7.103972 3.9621,0.01504 11.38887,0.100971 11.38887,0.100971 l -0.006,-13.804928 -9.16404,-0.03564 0.0261,-6.289091 c 0,0 3.53579,-0.929078 8.07734,-1.805812 2.20334,-0.425349 -0.0364,-3.652462 -1.74439,-3.061385 z m -17.35904,14.309877 6.70345,-0.01127 -0.42361,6.687383 -6.22848,-0.02882 z m 16.62171,0 -0.11914,6.787891 -6.55343,-0.08355 0.53859,-6.640013 z M 99.695068,19.344908 c 0,0 0.127501,26.647808 0.06911,29.192672 -2.202665,6.936296 -6.967687,7.309558 -10.570679,9.761401 7.380595,11.602927 13.553811,-1.560331 15.324761,-12.558609 0.18502,-7.109434 0.0292,-22.617123 0.0292,-22.617123 l 30.2737,0.06453 c 0,0 -0.83117,20.922662 0.9239,27.614603 3.74097,13.687859 12.23936,16.656021 14.96905,6.004787 -4.46287,-1.439225 -6.76773,-0.864962 -9.98144,-6.502244 -2.15935,-8.393275 -1.02379,-31.04263 -1.02379,-31.04263 z"
         style="fill:#ffffff;fill-opacity:1;stroke:none"
         transform="matrix(1.0334145,0,0,1.0532484,288.11368,533.71242)"
         id="path3144" />
      <g
         transform="matrix(0.38534017,0,0,0.35107479,253.32033,352.34416)"
         id="g3234"
         style="fill:#ffffff;fill-opacity:1">
        <path
           sodipodi:nodetypes="ccccccccccccccccccccccc"
           style="fill:#ffffff;fill-opacity:1;stroke:none"
           d="m 354.22112,533.39526 c -0.74279,0.1892 -2.00251,-0.3011 -2.47593,0.44958 0.11937,1.12862 1.80165,0.81449 2.37632,1.63879 1.97533,2.05255 2.11996,5.18145 3.11692,7.75404 1.96937,6.57779 3.63808,13.31152 5.64131,19.83708 1.6983,0.5415 2.71208,-0.86833 3.08125,-2.2533 2.51892,-6.80942 4.36365,-12.33588 6.97187,-19.10681 2.93122,7.45484 4.35551,13.80911 7.27333,21.23684 1.72587,0.72507 3.20643,-0.71584 3.49059,-2.15074 2.57613,-8.1494 4.79467,-16.46137 7.74149,-24.46146 0.49318,-1.29161 2.10757,-1.25154 2.82454,-2.25514 0.096,-1.00893 -1.48576,-0.51901 -2.06326,-0.68888 -2.27781,0.11868 -4.66375,-0.27552 -6.87995,0.22479 -0.49394,0.93735 1.12441,1.06913 1.68619,1.25448 1.32498,0.23952 2.01414,1.7101 1.38737,2.91501 -1.67222,6.10443 -3.39065,12.35727 -5.37162,18.27323 -3.01401,-7.25189 -5.47887,-14.81409 -8.37403,-22.09465 -1.6565,-0.55815 -1.96193,0.96632 -2.35633,2.24564 -2.47415,6.58379 -4.8202,13.47848 -7.44066,19.84176 -1.88446,-6.38523 -3.6434,-12.84861 -5.16529,-19.31742 -0.19351,-1.46181 1.39286,-2.00035 2.49726,-2.21889 0.82563,-0.237 0.38613,-1.30577 -0.39842,-1.05868 -2.50195,-0.14016 -5.04693,-0.0488 -7.56295,-0.0653 z"
           id="path3195"
           inkscape:connector-curvature="0" />
        <path
           sodipodi:nodetypes="ccccccccccccccc"
           style="fill:#ffffff;fill-opacity:1;stroke:none"
           d="m 399.06525,533.39526 c -0.73654,0.20129 -2.05716,-0.33009 -2.48303,0.48584 0.0938,1.2063 1.78794,0.69866 2.53995,1.21096 1.2465,0.58659 0.47022,2.38175 0.76018,3.45867 0.10664,7.37024 0.29537,14.78525 -0.0842,22.1311 -0.55306,1.28648 -2.25922,0.66009 -3.0878,1.45026 -0.60536,1.17193 0.74616,0.98877 1.5439,0.94266 3.13048,0 6.26096,0 9.39144,0 0.47347,-1.08213 0.82401,-1.45025 -1.05267,-1.45025 -1.02636,-0.0431 -1.93207,-0.85776 -1.72176,-1.97235 -0.11798,-7.75833 -0.17304,-15.54753 0.0356,-23.29111 -0.0295,-1.68546 1.49481,-1.43203 2.55388,-1.88533 0.63789,-0.4096 0.0501,-1.20632 -0.58341,-1.01518 -2.58489,-0.14118 -5.21306,-0.048 -7.81198,-0.0653 z"
           id="path3201"
           inkscape:connector-curvature="0" />
        <path
           sodipodi:nodetypes="ccccccccccccccccccccccc"
           style="fill:#ffffff;fill-opacity:1;stroke:none"
           d="m 411.50181,533.39526 c -0.57153,0.0322 -2.06386,-0.14736 -1.6364,0.87741 0.79203,0.73067 2.12701,0.56962 2.92416,1.3995 0.93565,0.79999 2.20342,1.65526 1.78487,3.11802 -0.13222,7.03369 0.12174,14.10881 -0.33347,21.11575 -0.41509,1.49355 -2.24387,1.45766 -3.32258,2.13188 -0.48813,0.62774 -0.12801,1.39407 0.7684,1.03693 3.05458,0 6.10918,0 9.16377,0 0.46981,-1.08553 -0.81681,-1.50635 -1.65062,-1.47926 -1.63094,-0.0441 -2.83831,-1.46776 -2.71361,-3.11739 -0.19124,-6.52754 0.15471,-13.09457 0.15071,-19.63712 6.52617,7.8054 11.31177,15.86114 18.04573,23.47239 -0.73615,0.82351 3.42677,1.32021 3.09422,-0.0435 0.0645,-8.37044 -0.13827,-16.77858 0.22728,-25.12568 0.24026,-1.6448 1.91563,-2.17762 3.25854,-2.61047 0.57208,-0.29589 0.40741,-1.24929 -0.32727,-1.07319 -3.07429,-0.0489 -6.25197,-0.26185 -9.29895,0.11602 -0.68955,0.56863 0.41481,1.35829 1.03874,1.18921 1.46997,0.064 3.30022,0.86235 3.1376,2.67573 0.28189,6.2235 0.007,10.67796 0.0427,16.91971 -6.23214,-7.5884 -10.04471,-13.59438 -16.31284,-21.13842 -1.8925,0.004 -6.14843,0.15724 -8.04088,0.17224 z"
           id="path3203"
           inkscape:connector-curvature="0" />
        <path
           sodipodi:nodetypes="cccccccccccccccccccc"
           style="fill:#ffffff;fill-opacity:1;stroke:none"
           d="m 445.68808,533.40252 c -0.54283,-0.0364 -2.28842,-0.0591 -1.55812,0.90641 0.91801,0.69443 3.0838,0.27429 3.01987,1.91365 0.25646,8.1436 0.35317,16.36196 0.0181,24.50276 -0.59037,1.13616 -2.13865,0.74248 -3.09492,1.1457 -0.31654,0.53989 -0.22876,1.56782 0.65456,1.20371 5.84564,-0.17245 11.82487,0.49812 17.54493,-0.98617 6.14071,-1.76884 10.59755,-7.99985 10.4006,-14.49523 0.46476,-5.1212 -2.18259,-10.47169 -6.8717,-12.5883 -4.33519,-2.18253 -9.30264,-1.27151 -13.95903,-1.57077 -2.05125,-0.0265 -4.10291,-0.053 -6.15431,-0.0318 z m 10.77773,1.4285 c 3.38831,0.0495 4.82503,0.33981 7.12231,3.22682 3.3326,3.51181 3.39216,8.89108 2.92415,13.47288 -0.64065,4.28046 -3.29256,8.50871 -7.64121,9.49192 -2.33177,0.48412 -2.34332,0.70137 -4.64639,0.0435 -1.87111,-1.09237 -1.1065,-3.71044 -1.34014,-5.53987 -0.0827,-6.93911 -0.0883,-13.87908 -0.13973,-20.81853 1.24034,0.0411 2.48067,0.0822 3.72101,0.12328 z"
           id="path3205"
           inkscape:connector-curvature="0" />
      </g>
    </g>
  </g>
</svg>
